<?xml version="1.0" standalone="no"?><!DOCTYPE svg PUBLIC "-//W3C//DTD SVG 1.1//EN" "http://www.w3.org/Graphics/SVG/1.1/DTD/svg11.dtd"><svg t="1523164834877" class="icon" style="" viewBox="0 0 1024 1024" version="1.1" xmlns="http://www.w3.org/2000/svg" p-id="1006" xmlns:xlink="http://www.w3.org/1999/xlink" width="25" height="25"><defs><style type="text/css"></style></defs><path d="M32 413.33333333A360 360 0 0 0 560.3 731.63333333l250.2 250.2a105.9 105.9 0 1 0 150-150L960.5 833.33333333l-250.2-250.2A360 360 0 1 0 32 413.33333333zM922.7 869.63333333A52.8 52.8 0 1 1 848 944.33333333l-242.1-242.10000001a363 363 0 0 0 74.99999999-74.69999999zM692 413.33333333a300 300 0 1 1-300-300 300 300 0 0 1 300 300z" fill="#f4db47" p-id="1007"></path><path d="M551.67253432 551.67253434a224 224 0 0 0 0-316.78383796 16 16 0 0 0-22.627417 22.627417 192 192 0 0 1-1e-8 271.52900397 16 16 0 0 0 22.62741701 22.62741699z" fill="#f4db47" p-id="1008"></path></svg>