<?xml version="1.0" standalone="no"?><!DOCTYPE svg PUBLIC "-//W3C//DTD SVG 1.1//EN" "http://www.w3.org/Graphics/SVG/1.1/DTD/svg11.dtd"><svg t="1523414597283" class="icon" style="" viewBox="0 0 1024 1024" version="1.1" xmlns="http://www.w3.org/2000/svg" p-id="1279" xmlns:xlink="http://www.w3.org/1999/xlink" width="25" height="25"><defs><style type="text/css"></style></defs><path d="M635.50302734 207.71914062c-118.12236328-118.12060547-309.65888672-118.12060547-427.7821289 0-118.12236328 118.13378906-118.12236328 309.66679687 0 427.78740235 115.01455078 115.01191406 299.57695312 117.99228516 418.25214844 9.06679687L886.2734375 904.87109375 904.87109375 886.27431641 644.56982422 625.96425781C753.509375 507.30400391 750.51669922 322.73193359 635.50302734 207.71914062zM616.90449219 616.90888672c-107.68095703 107.67919922-282.90585938 107.67919922-390.5859375 0-107.68095703-107.67832031-107.68095703-282.90058594 0-390.57978516 107.68095703-107.69150391 282.90585938-107.69150391 390.5859375 0C724.58544922 334.00830078 724.58544922 509.23056641 616.90449219 616.90888672z" fill="#bfbfbf" p-id="1280"></path></svg>