<?xml version="1.0" standalone="no"?><!DOCTYPE svg PUBLIC "-//W3C//DTD SVG 1.1//EN" "http://www.w3.org/Graphics/SVG/1.1/DTD/svg11.dtd"><svg t="1523239096319" class="icon" style="" viewBox="0 0 1024 1024" version="1.1" xmlns="http://www.w3.org/2000/svg" p-id="1117" xmlns:xlink="http://www.w3.org/1999/xlink" width="25" height="25"><defs><style type="text/css"></style></defs><path d="M502.9729325 595.92718344h18.08140687c14.95056938 0 27.09756563 14.78693625 27.09756657 33.00470437v154.03286344c0 18.21776813-12.14699625 33.01561313-27.12483844 33.01561313h-18.07049813c-14.9669325 0-27.09211125-14.79784594-27.09211218-33.01561313v-154.03286344c0.01636312-18.21776813 12.14154187-33.00470438 27.10847531-33.00470437zM842.07431656 428.07281656h-55.11147468V362.06340781c0-148.44208125-111.07383938-285.87168469-274.9573875-285.87168468-161.33087906 0-274.95193312 142.29494812-274.95193313 285.87168468v66.01486313H181.94750094V362.06340781c0-179.96863687 150.08386219-330.06340781 330.05249906-330.06340781 177.71050687 0 330.07431656 143.96945531 330.07431656 330.06340781v66.00940875z" fill="#ffffff" p-id="1118"></path><path d="M806.39694594 419.89663906H217.61941813c-68.30572031 0-123.69537094 55.37328656-123.69537094 123.69537v324.71807438c0 68.30026594 55.37874094 123.68991656 123.69537094 123.68991656h588.77752781c68.29481156 0 123.68446125-55.37328656 123.68446125-123.68991656v-324.71807438c-0.00545438-68.31662906-55.38419625-123.69537094-123.68446125-123.69537z m77.51278312 393.19833563c0 75.21101813-44.62807687 136.20235875-119.84454844 136.20235969H259.9511825c-75.22738125 0-119.85000375-60.98588625-119.85000281-136.20235969v-214.30422c0-75.21101813 44.61716812-136.20235875 119.85000281-136.20235875h504.11399812c75.2164725 0 119.84454937 60.98043188 119.84454844 136.20235875v214.30422z" fill="#ffffff" p-id="1119"></path></svg>