<?xml version="1.0" standalone="no"?><!DOCTYPE svg PUBLIC "-//W3C//DTD SVG 1.1//EN" "http://www.w3.org/Graphics/SVG/1.1/DTD/svg11.dtd"><svg t="1523238638819" class="icon" style="" viewBox="0 0 1024 1024" version="1.1" xmlns="http://www.w3.org/2000/svg" p-id="1083" xmlns:xlink="http://www.w3.org/1999/xlink" width="25" height="25"><defs><style type="text/css"></style></defs><path d="M784.4 649.5536c-2.7984-2.7984-5.712-5.4864-8.5968-8.1984-0.6864-0.8112-1.3152-1.6512-2.112-2.3856a383.1456 383.1456 0 0 0-77.2896-55.2048l-0.3216-0.1728a382.08 382.08 0 0 0-15.2976-7.8384c-0.864-0.4176-1.7376-0.8256-2.6016-1.2384a381.1536 381.1536 0 0 0-13.3824-6.0528c-1.5504-0.6672-3.1104-1.3056-4.6704-1.9536-2.1984-0.9072-4.3632-1.8864-6.5856-2.7552-1.7952-0.7056-3.6384-1.3152-5.448-1.992-1.776-0.6672-3.552-1.3152-5.3424-1.9536-1.5888-0.5664-3.1536-1.1904-4.752-1.7376a273.5712 273.5712 0 0 0 60.4272-45.4944c49.3584-49.3536 79.8384-117.4896 79.8384-192.7488 0-75.2592-30.48-143.3904-79.8384-192.7488C649.1216 77.7872 580.9904 47.2592 505.7312 47.2592c-75.312 0-143.4432 30.528-192.7488 79.8384-49.3584 49.3536-79.8384 117.4848-79.8384 192.7488s30.4752 143.3952 79.8336 192.7488c19.6896 19.6944 42.4992 36.216 67.464 49.1664a0.0672 0.0672 0 0 1-0.0288 0.0096c-1.8096 0.6768-3.6528 1.2864-5.448 1.992-2.2176 0.8688-4.3824 1.8432-6.5808 2.7504-1.5648 0.648-3.1296 1.2912-4.68 1.9584-4.5024 1.9296-8.9568 3.9504-13.368 6.048-0.8736 0.4176-1.7472 0.8208-2.616 1.2432a374.9136 374.9136 0 0 0-15.2784 7.8288l-0.3408 0.1824a382.7664 382.7664 0 0 0-77.2848 55.2c-0.7968 0.7344-1.4304 1.5792-2.112 2.3856-2.8848 2.712-5.7984 5.4-8.6016 8.1984-69.1968 69.192-111.96 164.7696-111.96 270.2976 0 4.4112 0.1104 9.9984 0.4272 16.6464 0.264 6.5376 0.6384 11.9664 1.008 16.3296a25.9872 25.9872 0 0 0 28.0272 23.8224 26.064 26.064 0 0 0 23.8272-28.0848 298.7904 298.7904 0 0 1-1.0128-14.304 337.3152 337.3152 0 0 1-0.264-14.4144c0-91.1616 36.9648-173.7648 96.7488-233.4912a332.136 332.136 0 0 1 20.6688-18.9072c1.368-1.152 2.7168-2.3184 4.0992-3.4464a328.392 328.392 0 0 1 17.9616-13.608c2.6784-1.896 5.3472-3.7968 8.0784-5.6112a336.2928 336.2928 0 0 1 27.408-16.3872 322.7136 322.7136 0 0 1 11.6208-5.952 335.736 335.736 0 0 1 17.064-7.6368 319.7568 319.7568 0 0 1 29.7792-10.7328 325.4448 325.4448 0 0 1 10.3824-2.9472 328.584 328.584 0 0 1 20.952-4.992c2.6064-0.5232 5.2512-0.9456 7.8816-1.4064 8.0496-1.4016 16.1616-2.64 24.408-3.4512 0.2256-0.024 0.4512-0.0288 0.6768-0.0528 7.872 0.6816 15.7872 1.2048 23.8368 1.2048 10.3008 0 20.4336-0.6864 30.4368-1.8 2.2368 0.144 4.5168 0.1248 6.7392 0.3168 1.4544 0.1248 2.928 0.1872 4.3776 0.3312 8.2464 0.8112 16.3584 2.0496 24.408 3.4512 2.6304 0.4656 5.2704 0.8832 7.8768 1.4064 7.0848 1.416 14.0496 3.1344 20.9568 4.992 3.4752 0.9408 6.9504 1.896 10.3776 2.9472 6.0912 1.8528 12.0864 3.9072 18.0192 6.096 3.9552 1.4688 7.872 3.024 11.7552 4.6368a330.0288 330.0288 0 0 1 17.0736 7.6368c3.9216 1.9008 7.7856 3.9024 11.6208 5.952 4.4784 2.3904 8.88 4.8912 13.2288 7.4784a334.224 334.224 0 0 1 14.1696 8.904c2.7504 1.824 5.4336 3.7392 8.1264 5.6448a331.0032 331.0032 0 0 1 17.9136 13.5744c1.3968 1.1376 2.76 2.3184 4.1376 3.48a331.248 331.248 0 0 1 20.64 18.8832c59.784 59.7264 96.7488 142.3248 96.7488 233.4912 0 6.0096-0.1056 10.8-0.264 14.4144-0.1584 3.72-0.48 8.5056-1.0128 14.304-1.1712 14.3088 9.4704 26.8608 23.8272 28.0848a25.992 25.992 0 0 0 28.0272-23.8224c0.3696-4.3632 0.7488-9.792 1.008-16.3296a352.848 352.848 0 0 0 0.4272-16.6464c0.0192-105.5328-42.744-201.1104-111.9408-270.3072zM285.1616 319.8416c0-60.8976 24.7344-116.0544 64.6224-155.9424 39.888-39.8928 95.0448-64.5744 155.9424-64.5744 60.8976 0 116.0016 24.6816 155.8896 64.5744 39.9408 39.888 64.6224 95.0448 64.6224 155.9424 0 60.8976-24.6816 116.0016-64.6224 155.9424-33.3168 33.3216-77.3232 55.7952-126.384 62.3712l-0.0912-0.0048c-0.528-0.0288-1.0464-0.0864-1.5744-0.1104a382.632 382.632 0 0 0-19.1184-0.4944l-0.2016 0.0048-0.2016-0.0048c-6.4128 0-12.7824 0.1776-19.1184 0.4944-0.528 0.0288-1.0464 0.0816-1.5744 0.1104a377.808 377.808 0 0 0-11.7168 0.8352 219.84 219.84 0 0 1-131.856-63.1968c-39.8832-39.9456-64.6176-95.0448-64.6176-155.9472z" fill="#ffffff" p-id="1084"></path></svg>