<?xml version="1.0" standalone="no"?><!DOCTYPE svg PUBLIC "-//W3C//DTD SVG 1.1//EN" "http://www.w3.org/Graphics/SVG/1.1/DTD/svg11.dtd"><svg t="1523325519530" class="icon" style="" viewBox="0 0 1024 1024" version="1.1" xmlns="http://www.w3.org/2000/svg" p-id="1222" xmlns:xlink="http://www.w3.org/1999/xlink" width="25" height="25"><defs><style type="text/css"></style></defs><path d="M714.5 962H309.5c-49.635 0-90-40.365-90-90V152C219.5 102.365 259.865 62 309.5 62h405c49.635 0 90 40.365 90 90v720c0 49.635-40.365 90-90 90z m45-810c0-24.795-20.205-45-45-45H309.5c-24.795 0-45 20.205-45 45v585h495V152z m0 630H264.5v90c0 24.795 20.205 45 45 45h405c24.795 0 45-20.205 45-45v-90z m-196.875 90h-101.25a22.5 22.5 0 0 1 0-45h101.25a22.5 22.5 0 1 1 0 45z" fill="#ffffff" p-id="1223"></path></svg>