<?xml version="1.0" standalone="no"?><!DOCTYPE svg PUBLIC "-//W3C//DTD SVG 1.1//EN" "http://www.w3.org/Graphics/SVG/1.1/DTD/svg11.dtd"><svg t="1523325534639" class="icon" style="" viewBox="0 0 1024 1024" version="1.1" xmlns="http://www.w3.org/2000/svg" p-id="1396" xmlns:xlink="http://www.w3.org/1999/xlink" width="25" height="25"><defs><style type="text/css"></style></defs><path d="M512 944.63270937l-7.46176688-2.71572562c-142.66152844-51.92613937-258.32227031-155.39923313-325.67592187-291.36024281-67.06470375-135.37543406-79.71889219-289.41824437-35.63178375-433.7529825l4.70764219-15.41215313 16.11580312-0.03167906c122.07615281-0.23806969 237.69561656-40.32118687 334.35779719-115.91801156l13.45959469-10.5259575 13.44519562 10.5461175c96.36171281 75.58242562 212.07429281 115.65882188 334.63042594 115.8978525l16.11580312 0.03167906 4.70668219 15.41215312c44.08806844 144.33473813 31.43292 298.37754844-35.63082375 433.7529825C777.78403719 786.51775063 662.12329438 889.99084437 519.46272688 941.91698375L512 944.63270937zM180.55760094 244.73570469C106.34983719 515.04691156 249.41454875 798.27629656 512 898.13706219c262.58641125-99.86172563 405.65016281-383.08919063 331.44239906-653.3994375-61.03327688-1.792245-120.87332344-12.91913719-178.11859875-33.13876781-54.94425187-19.40750531-106.50080719-46.81051406-153.48987375-81.56009438-47.05626375 34.71502219-98.56866 62.09595187-153.35643937 81.49097719C301.25045187 231.78776937 241.4737625 242.93674062 180.55760094 244.73570469zM472.09351625 670.17447687c-5.58408563 0-11.16625125-2.13015094-15.42751219-6.39045187L333.26222656 540.38024844c-8.51964188-8.51964188-8.51964188-22.33442156 0-30.85406438 8.52060188-8.51964188 22.33442156-8.51964188 30.85502438 0L472.09447625 617.50340844l231.42324-231.40212094c8.52060188-8.52060188 22.33442156-8.51964188 30.85502438 0.00096 8.51964188 8.52060188 8.51964188 22.33442156-0.00096 30.85406438L487.52006844 663.784985C483.2597675 668.04432594 477.67568188 670.17447687 472.09351625 670.17447687z" fill="#ffffff" p-id="1397"></path></svg>