<?xml version="1.0" standalone="no"?><!DOCTYPE svg PUBLIC "-//W3C//DTD SVG 1.1//EN" "http://www.w3.org/Graphics/SVG/1.1/DTD/svg11.dtd"><svg t="1524448768004" class="icon" style="" viewBox="0 0 1024 1024" version="1.1" xmlns="http://www.w3.org/2000/svg" p-id="5334" xmlns:xlink="http://www.w3.org/1999/xlink" width="25" height="25"><defs><style type="text/css"></style></defs><path d="M512 757.3c-12.317 0-22.3 9.991-22.3 22.308v156.098c0 12.32 9.985 22.298 22.3 22.298 12.317 0 22.3-9.977 22.3-22.298V779.608c0-12.317-9.983-22.307-22.3-22.307z m11.15-691.305h-22.3c-104.69 0-189.553 84.866-189.553 189.551v223.002c0 104.687 84.864 189.555 189.553 189.555h22.3c104.687 0 189.553-84.869 189.553-189.555V255.546c0-104.684-84.866-189.55-189.553-189.55z m144.952 413.71c0 79.414-66.007 143.791-147.43 143.791h-17.345c-81.423 0-147.43-64.377-147.43-143.79V254.393c0-79.419 66.008-143.802 147.43-143.802h17.346c81.423 0 147.43 64.383 147.43 143.802v225.311z" fill="#bfbfbf" p-id="5335"></path><path d="M813.405 549.956c-11.599-4.07-24.3 2.027-28.376 13.625-40.641 115.723-150.405 193.476-273.132 193.476-122.634 0-232.37-77.673-273.064-193.28-4.081-11.596-16.79-17.688-28.385-13.605-11.595 4.081-17.686 16.789-13.604 28.384 22.741 64.603 64.264 120.004 120.08 160.21 57.04 41.087 124.46 62.805 194.974 62.805 70.555 0 138.009-21.741 195.067-62.873 55.838-40.253 97.357-95.706 120.065-160.366 4.073-11.598-2.027-24.303-13.625-28.376z" fill="#bfbfbf" p-id="5336"></path></svg>